<svg width="36" height="37" viewBox="0 0 36 37" fill="none" xmlns="http://www.w3.org/2000/svg">
<path fill-rule="evenodd" clip-rule="evenodd" d="M18 36.384C15.57 36.384 13.2126 35.9081 10.9935 34.9695C8.85005 34.063 6.92506 32.7651 5.27197 31.112C3.6189 29.4589 2.32105 27.534 1.41449 25.3905C0.4759 23.1714 0 20.8141 0 18.384C0 15.954 0.4759 13.5966 1.41449 11.3775C2.32105 9.23405 3.6189 7.30906 5.27197 5.65597C6.92506 4.0029 8.85005 2.70505 10.9935 1.79849C13.2126 0.859903 15.57 0.384003 18 0.384003C20.43 0.384003 22.7874 0.859903 25.0065 1.79849C27.15 2.70505 29.0749 4.0029 30.728 5.65597C32.3811 7.30906 33.679 9.23405 34.5855 11.3775C35.5241 13.5966 36 15.954 36 18.384C36 20.8141 35.5241 23.1714 34.5855 25.3905C33.679 27.534 32.3811 29.4589 30.728 31.112C29.0749 32.7651 27.15 34.063 25.0065 34.9695C22.7874 35.9081 20.43 36.384 18 36.384ZM13.0815 10.5549V26.2131L26.6418 18.384L13.0815 10.5549Z" fill="white"/>
</svg>
